<?xml version="1.0" encoding="utf-8"?>
<!-- Generator: Adobe Illustrator 21.1.0, SVG Export Plug-In . SVG Version: 6.00 Build 0)  -->
<svg version="1.1" id="Layer_1" xmlns="http://www.w3.org/2000/svg" xmlns:xlink="http://www.w3.org/1999/xlink" x="0px" y="0px"
	 viewBox="0 0 800 600" style="enable-background:new 0 0 800 600;" xml:space="preserve">
<style type="text/css">
	.st0{fill:#F1CA00;}
	.st1{opacity:0.5;enable-background:new    ;}
	.st2{fill:url(#path3002_2_);}
	.st3{fill:#73CB2B;}
	.st4{fill:#549C1C;}
	.st5{fill:#456F00;}
	.st6{fill:#5A3C08;}
	.st7{fill:#2B1100;}
	.st8{fill:#A05E00;}
	.st9{fill:#DEAA87;}
	.st10{fill:#F8010A;}
	.st11{opacity:0.3248;fill:url(#path4029_2_);enable-background:new    ;}
	.st12{opacity:0.3248;fill:url(#path4043_2_);enable-background:new    ;}
	.st13{fill:#FFE680;}
	.st14{fill:#FEBE14;}
	.st15{fill:#FFD42A;}
	.st16{fill:#4E8A11;}
	.st17{fill:url(#path3039_2_);}
	.st18{fill:url(#path3006_2_);}
	.st19{fill:#D38D5F;}
	.st20{fill:#4C6E00;}
	.st21{opacity:0.364;fill:#D5FFD5;enable-background:new    ;}
	.st22{opacity:0.3248;fill:url(#path4011_2_);enable-background:new    ;}
	.st23{fill:url(#SVGID_1_);}
	.st24{fill:#F2E933;}
	.st25{fill:#EF0000;}
</style>
<g>
	<path d="M197.9,258.5c-5.2,0-10.1-0.9-15.4-2.7c-6.9-2.4-9.3-4.6-15.2-10.5c-5.7-5.7-8.2-8.9-11.3-14.7
		c-8.2-15.1-12.2-30.3-12.3-46.5c0-4.2,0.2-8.8,0.5-12.6c0.3-3.6,0.6-6.7,1.7-9.3c0-0.2,0.1-0.4,0.1-0.6c0.9-7.1,7-22.8,10.8-30.5
		c5.5-11.2,11.9-20.2,21.5-29.8l1.7-1.7c9.7-9.9,19.8-20.2,33.4-26c40.2-22.5,76.6-33.9,108.3-33.9c0.7,0,1.4,0,2.1,0l0.2,0l0.2,0
		c24.8,1.3,49,9.1,70.1,22.4c10.4,6.6,27.1,22.1,35,32.5c6.6,8.6,14.9,22.4,20.4,33.4c11.7,23.6,13.6,43.1,5.5,56.5l-0.1,0.1
		c-3.3,5.4-4.9,6.7-10.4,10l-0.1,0.1c-6.9,4.1-10.8,5-35.6,10.2c-24.2,5.1-46.5,10.8-95.4,24.5c-45.4,12.7-97.2,26.8-106.1,28.3
		C204,258.2,200.9,258.5,197.9,258.5z"/>
	<path id="path2998_3_"  class="st0" d="M438.2,184.1
		c-4.9,2.9-6.6,3.4-31.9,8.7c-24.4,5.1-47.3,11-96.1,24.7c-55.7,15.6-97.9,26.9-104.7,28c-7.4,1.2-12.6,0.8-18.8-1.3
		c-4.2-1.5-5.1-2.1-10.6-7.6c-4.9-4.9-6.6-7.1-9.2-11.9c-7.2-13.2-10.7-26.6-10.7-40.6c0-8.1,0.7-16.9,1.5-17.7
		c0.2-0.2,0.5-1.7,0.7-3.3c0.6-4.6,5.6-18.4,9.6-26.6c5-10.1,10.6-17.9,19.2-26.6c10.2-10.3,19.4-20.2,31.7-25.2
		c23.8-13.4,65.1-33.3,104.8-32.7c22.7,1.2,44.8,8.3,64.1,20.5c9.2,5.9,24.7,20.3,31.7,29.6c6.1,8.1,14,21.1,19.2,31.4
		c9.6,19.4,11.8,35.2,6,44.6C442.5,181.6,442.5,181.5,438.2,184.1z"/>
	<g id="g4224_1_" transform="matrix(1.2074561,0,0,1.2074561,24.065539,22.51576)">
		<g id="path4086_1_"  class="st1">
			<path d="M115.6,101c-1.5,3.8-2.7,7.9-3.5,12c-3.3,13-3.4,27.2-0.4,40.1c2,8.9,7,17.2,13.3,23.8c4.1,4.4,9.4,11,15.3,9.6
				c2.7-0.6,5.3-1.3,7.9-1.9c1.1-0.1,2.2-0.2,3.3-0.4c4.1-0.7,24.1-5.9,52.6-13.7c41.6-10.8,81.8-21.6,123.8-30.8
				c2.5-0.6,8-2.4,12.6-4.5c0.1,0,0.2-0.1,0.3-0.1c0.1,0,0.2-0.1,0.3-0.1c0.7-0.3,1.3-0.6,1.9-0.9c1.4-0.7,2.6-1.4,3.5-2.1
				c-0.1,0-0.1,0-0.2,0.1c1.5-1,1.8-1.5,3.1-3.6c4.7-7.8,3-20.9-5-37c-4.2-8.6-10.8-19.3-15.9-26c-5.8-7.7-18.6-19.6-26.3-24.5
				c-9.2-5.8-19.1-10.2-29.5-13.1c-0.1-0.4-0.3-0.6-0.6-0.8c-0.4-0.2-1-0.1-1.8,0.1c-3.2-0.8-6.5-1.5-9.8-2l-0.6-1l-0.6,0.8
				c-3.4-0.5-6.8-0.8-10.2-1c-12.9-0.2-26,2.2-38.3,5.9c-0.9-1.8-1.6-3.3-3.9-3.3c-3,0.1-6.4,3.8-8.1,7.3
				c-10.3,3.8-19.8,8.3-27.9,12.5l-5.3-0.8l-0.2,3.8c-1,0.6-2.1,1.1-3.1,1.7c-3.2,1.3-6.2,3.1-9.1,5.1c-0.8,0.4-1.6,0.8-2.4,1.2
				c-5.6,3.1-10.8,7.2-15.4,11.9C126.8,78.2,120,89.6,115.6,101z"/>
		</g>
		<path id="path2998_2_"   class="st0" d="M343.5,133.3
			c-4,2.4-5.5,2.8-26.4,7.2c-20.2,4.3-39.2,9.1-79.6,20.5c-46.1,12.9-81.1,22.3-86.7,23.2c-6.1,1-10.5,0.7-15.6-1.1
			c-3.5-1.2-4.2-1.7-8.8-6.3c-4.1-4.1-5.5-5.9-7.6-9.8c-6-10.9-8.9-22-8.9-33.6c0-6.7,0.6-14,1.2-14.6c0.1-0.2,0.4-1.4,0.6-2.8
			c0.5-3.8,4.6-15.3,7.9-22c4.1-8.4,8.8-14.8,15.9-22.1c8.4-8.6,16.1-16.7,26.3-20.9c19.7-11.1,53.9-27.6,86.8-27
			c18.8,1,37.1,6.9,53.1,17c7.6,4.9,20.5,16.8,26.3,24.5c5.1,6.7,11.6,17.4,15.9,26c8,16.1,9.7,29.1,5,37
			C347,131.2,347.1,131.2,343.5,133.3z"/>
		
			<linearGradient id="path3002_2_" gradientUnits="userSpaceOnUse" x1="257.5845" y1="492.0493" x2="197.857" y2="183.2902" gradientTransform="matrix(-0.8461 0.8614 -0.8614 -0.8461 812.0731 274.8863)">
			<stop  offset="0" style="stop-color:#E3B200"/>
			<stop  offset="1" style="stop-color:#AA8800"/>
		</linearGradient>
		
			<path id="path3002_1_" class="st2" d="
			M122.3,95.2c-1.6,3.2-3.4,7.7-4.9,11.8c-1.5,4.1-2.6,8-2.7,9.2c-0.1,0.8-0.2,1.5-0.3,2.1c-0.1,0.3-0.1,0.6-0.2,0.9
			c0,0.1-0.1,0.3-0.2,0.5c0,0-0.1,0.2-0.2,0.2c-0.1,0.2-0.1,0.4-0.5,0.8c0.4-0.4,0.5-0.5,0.5-0.7c0,0.1-0.1,0.3-0.1,0.6
			c-0.1,0.7-0.2,1.9-0.4,3.2c-0.2,2.6-0.4,6.1-0.4,9.4c0,11.1,2.8,21.6,8.5,32.1c2.1,3.8,3.1,5.2,7.1,9.1c2.3,2.3,3.5,3.5,4.4,4.1
			c0.9,0.6,1.5,0.9,3.2,1.5c4.7,1.6,8.2,1.9,14,1c2.2-0.4,12.7-3,27.9-7c15.2-4.1,35.5-9.6,58.5-16.1c40.5-11.3,59.5-16.2,79.8-20.5
			c10.5-2.2,16-3.4,19.3-4.3c3.3-0.9,4.1-1.4,6.1-2.5c3.6-2.2,2.5-1.1,4.2-3.9c3.8-6.2,2.7-18.3-5.1-34
			c-4.1-8.4-10.7-19.1-15.6-25.5C320,60,307,47.9,300,43.5c-15.5-9.8-33.2-15.5-51.5-16.5c0,0-0.1,0-0.1,0
			c-31.8-0.5-65.7,15.7-85.1,26.6c-0.1,0.1-0.2,0.1-0.3,0.2c-9.4,3.9-16.8,11.6-25.2,20.2C130.7,81.1,126.3,87.1,122.3,95.2z"/>
		<path id="path3997_1_"  class="st3" d="M263.3,30.5l-4.3,3.6l3.3,6l-1.2,2.4c0,0,4.9,2.4,8.1,5.1
			s-8.8,6.1-8.8,6.1l-11.2,2.1l-2.3-3.4c0,0,5.5-3.2,9-2.2c3.5,1-6.4-7.6-6.4-7.6l2.6-3.8l-3.1-4.9l5-2.6l5.3-7.1L263.3,30.5z"/>
		<path id="path3977_1_"  class="st4" d="M314.3,66.8
			c-7-4.4-23.1-2.6-25.6-10.1s10.1-13.6,10.2-16.9c0.1-3.3-18.5,3.3-23.4-0.3s-1.9-11.4-3.9-12.5s-9.9,5.2-16.8,7.2
			c-6.9,2-17.4,4.4-24.4,4c-7-0.4-12.9-2.4-16.9-4.7c-4-2.3-3.2-7.1-7.1-7c-4,0.1-8.5,6.5-9.1,10.4c-0.6,3.9,6,1.1,3.9,9.2
			s-31.9,24.7-31.9,24.7s43.4-7.7,60.3-4.3c16.9,3.4,28.9,19.1,38.2,19.2c9.3,0.1,8.2-3.8,11.9-5.5c3.7-1.8,6.6-5.6,10.3-5
			c3.6,0.6,4.2,6.1,7.7,7.5c3.5,1.4,9.2-2.4,12-0.1c2.7,2.3-3,6.9,1.7,9.2c4.7,2.3,18.5-2.7,19.5-10
			C331.7,74.6,321.3,71.2,314.3,66.8z"/>
		<path id="path3989_1_"  class="st3" d="M307.3,85.1l-3.8-4.1l4.1-5.5l-0.9-2.6c0,0,5.2-1.7,8.8-4
			c3.6-2.2-7.9-7.2-7.9-7.2l-10.8-3.6l-2.7,3.1c0,0,5,3.9,8.6,3.4c3.6-0.5-7.4,6.7-7.4,6.7l2.1,4.1l-3.8,4.5l4.7,3.3l4.3,7.7
			L307.3,85.1z"/>
		<path id="path3991_1_"  class="st5" d="M298.1,81.2l-5.6-0.3l-0.9-6.8l-2.4-1.2
			c0,0,2.5-4.8,3.5-9c1-4.1-10.7,0.4-10.7,0.4l-10.2,5l0.2,4.1c0,0,6.3-0.7,8.5-3.6c2.2-2.9-0.5,10-0.5,10l4.4,1.5l0.5,5.8l5.6-0.9
			l8.5,2.5L298.1,81.2z"/>
		<path id="path3993_1_"  class="st5" d="M305.4,89l4.7-3l4.7,5l2.7-0.4c0,0,0.8,5.4,2.3,9.3
			c1.5,4,8.5-6.5,8.5-6.5l5.5-10l-2.5-3.3c0,0-4.8,4.2-4.9,7.8c-0.1,3.6-5.3-8.5-5.3-8.5l-4.4,1.3l-3.7-4.5l-4,4l-8.4,2.8L305.4,89z
			"/>
		<path id="path3914_1_"  class="st6" d="
			M344.4,110.2c-3.1-2.5-9.4,3.2-12,0.1c-1.5-1.9,2.3-4.8,1.6-7.1c-0.5-1.7-3.1-2.1-3.8-3.8c-1.7-3.8,2.8-10.2-0.7-12.5
			c-2.6-1.7-5.6,3-8.7,3.3c-2.2,0.2-4.8,0.4-6.5-1c-1.8-1.5-0.4-5.2-2.2-6.5c-1.8-1.3-4.6,1-6.5,0.1c-1.9-0.9-2-4-3.8-4.9
			c-3.3-1.6-7.5,1.5-10.9,0.1c-2.1-0.9-2.9-3.8-4.9-4.8c-1.6-0.9-3.7-1.6-5.4-1c-3.9,1.2-4.5,8.4-8.6,8.8c-1.6,0.1-2.6-1.8-3.8-2.7
			c-4-2.8-7.2-9.4-12-8.6c-14.8,2.5-30.1,22.1-26.3,36.7c2.2,8.4,15.1,9.1,23.5,11.2c17.2,4.4,36-1.5,53.3,2.8
			c8.2,2,14.6,12.2,22.9,10.7c1.8-0.3,2.1-3.1,3.8-3.8c2.1-1,4.8-0.1,7.1-0.6c2.5-0.6,5.8-0.6,7-2.8
			C349.5,119.7,348,113.1,344.4,110.2L344.4,110.2z"/>
		<path id="path3943_1_"  class="st7" d="M324.8,106.4
			c-1.1-0.5-2.7,1.3-3.5,0.4c-1-1.1,2-3.4,0.9-4.4c-0.8-0.8-2.5,0.2-3.3,1c-0.8,0.9,0,2.5-0.7,3.5c-1,1.3-3.7,0.8-4.2,2.3
			c-0.3,1,0.5,2.3,1.4,2.9c0.9,0.6,2.2-0.5,3.3-0.2c1.2,0.3,1.9,2,3.1,1.9c2.3-0.1,5.1-2,5.3-4.3C327.3,108.2,326,106.9,324.8,106.4
			L324.8,106.4z"/>
		<path id="path3945_1_"  class="st7" d="M347,119.3
			c-1.3-1.1-2.6,2.1-4,3c-0.8,0.5-1.5,1.5-2.4,1.4c-1.3-0.2-1.2-2.8-2.5-3c-2.3-0.2-3.4,3.2-5.4,4.4c-2.2,1.3-5.7,0.6-7,2.8
			c-1,1.7-1,4.8,0.6,6c1.4,1.1,3.4-1,5.2-0.9c1.3,0.1,2.5,1.3,3.8,1.1c3.3-0.7,5.8-3.7,7.8-6.3C344.9,125.3,349.4,121.3,347,119.3
			L347,119.3z"/>
		<path id="path3947_1_"  class="st7" d="M305.1,96.2
			c-3.7,2.7-8.8,6.2-13,4.3c-3.4-1.5-5.4-6.6-4.5-10.1c0.6-2.6,3.7-5.1,6.3-4.9c1.2,0.1,1.2,2.5,2.3,2.7c1,0.1,1.5-1.5,2.5-1.8
			c0.6-0.1,1.6-0.2,1.9,0.4c0.6,0.8-0.8,2-0.6,2.9c0.3,1,1.3,2.4,2.3,2.3c1.3-0.2,0.8-2.7,1.9-3.5c0.6-0.5,1.5-0.2,2.3-0.4
			c0.8-0.2,1.6-1.1,2.3-0.8c0.7,0.4,0.9,1.5,0.8,2.3C309.3,92.2,307.3,94.6,305.1,96.2L305.1,96.2z"/>
		
			<path id="path3934_1_"  class="st8" d="
			M271.9,86.6c-1.1,1.5-3.2,2.8-3,4.6c0.1,1.3,1.5,2.4,2.7,2.7c2.2,0.5,4.3-1.9,6.5-2c2.6-0.1,5.1,1,7.7,1.5
			c1.3,0.2,2.7,1.3,3.9,0.7c2-1,1.6-4.4,3-6.2c1-1.3,3.7-1.5,3.8-3.1c0.2-1.6-1.5-3.4-3.1-3.8c-1.6-0.4-3,1.6-4.6,1.6
			c-3.7-0.1-6.8-5.1-10.4-4.1C275,79.3,273.9,83.8,271.9,86.6z M285.5,103c-0.4,1.6,0.2,3.7,1.6,4.6c2.4,1.5,5.6-0.8,8.5-0.9
			c2.4-0.1,4.9-0.2,7.3,0.3c1.5,0.4,2.7,1.5,4.2,1.9c2.5,0.7,5.2,1.5,7.7,0.7c2.1-0.7,5.2-2.1,5-4.3c-0.4-2.8-5.6-1.8-7.7-3.8
			c-0.6-0.5-1.4-1.2-1.2-1.9c0.8-2,4.7,0,6.1-1.6c1.2-1.4,1.9-4,0.7-5.4c-1.5-1.7-4.7,0.5-6.9,0.1c-1.5-0.3-2.8-2.4-4.2-1.9
			c-1.1,0.4-0.6,2.4-1.5,3.1c-1.8,1.3-4.3,0.7-6.5,1.2c-2.3,0.5-4.9,0.5-6.9,1.6C289.1,98.2,286.2,100.2,285.5,103z M310.3,125.1
			c3.3,1.5,7.2,0.8,10.8,1.4c4.3,0.7,8.7,4.3,12.7,2.6c2.2-1,3.4-3.8,3.8-6.2c0.6-3.2-1.7-6.3-2-9.6c-0.2-2,1-4.4-0.1-6.1
			c-0.9-1.5-3.5-1-4.6-2.3c-2.4-2.6-0.5-8.9-3.9-9.9c-1.9-0.6-5.1,1.5-5,3.5c0.1,2.8,5.8,1.8,7.3,4.2c2.3,3.6,3.2,8.9,1.3,12.7
			c-1.3,2.5-4.8,2.9-7.3,4.3c-2,1.1-3.8,3-6.1,3.1c-5.3,0.4-12.4-9.4-15-4.9C300.4,121,307,123.5,310.3,125.1z M312.9,120
			c2.6,0.6,4.3-4,6.9-3.9c0.9,0,1.5,1.9,2.3,1.5c1.8-0.8,2.4-4.3,1.1-5.8c-1.4-1.6-4.3,0.3-6.5,0.4c-2.9,0.2-7.5-2.2-8.8,0.5
			C306.6,115.4,310.1,119.4,312.9,120z"/>
		<path id="path3975_1_"  class="st9" d="M286.1,89.6
			c0.9,1,2.7,1.3,3.9,0.7c1.3-0.6,2.8-2.7,1.9-3.9c-0.5-0.7-1.8,1.1-2.5,0.6c-0.9-0.7,0.9-2.7,0-3.5c-0.9-0.7-2.7-0.1-3.5,0.8
			C284.8,85.8,284.9,88.3,286.1,89.6z"/>
		<path id="path3971_1_"  class="st9" d="M325.2,125.4
			c1.1,1.2,4.8-0.1,4.6,1.5c-0.1,1.6-3.2,0.6-4.8,0.6c-1.3,0-2.6,0-3.8-0.3c-0.9-0.3-2.2-0.4-2.5-1.3c-0.5-1.3,0.1-3.3,1.3-4
			c1.3-0.8,3.5-0.3,4.6,0.7C325.3,123.2,324.5,124.7,325.2,125.4z"/>
		<g id="g4031_1_" transform="matrix(0.49226652,0.87044452,-0.87044452,0.49226652,214.49957,-56.932013)">
			<path id="path4027_1_"  class="st10" d="M107.7,33.2l0.8,17.7
				l-12.7-3l-9.5-4.6c0,0-2.9-4.1-2.4-6.3c0.6-3.1,6.7-6.9,6.7-6.9l18.1,6.2L107.7,33.2z"/>
			
				<linearGradient id="path4029_2_" gradientUnits="userSpaceOnUse" x1="388.2219" y1="429.8617" x2="426.9323" y2="436.9284" gradientTransform="matrix(0.3333 1.1605 -1.1605 0.3333 450.1358 -561.1674)">
				<stop  offset="0" style="stop-color:#D7F4E3"/>
				<stop  offset="1" style="stop-color:#D7F4E3;stop-opacity:0"/>
			</linearGradient>
			<path id="path4029_1_"  class="st11" d="M100.6,47.1c2,0.5,4,1,5.9,1.4
				c-0.2-3.7-0.3-7.5-0.5-11.2c-4.1-1.4-8.2-2.8-12.3-4.2c-1.7-1.5-4-0.9-5.3,0.8c-2.1,1.3-3.4,3.9-2,6.2
				C89.8,44.4,95.7,45.5,100.6,47.1L100.6,47.1z"/>
		</g>
		<g id="g4039_1_" transform="matrix(0.89374339,-0.44857858,0.44857858,0.89374339,-50.92249,8.7799879)">
			<path id="path4041_1_"  class="st10" d="M235.4,186.3l-2.5-17.5
				l12.9,1.8l9.9,3.7c0,0,3.2,3.8,3,6c-0.3,3.2-6,7.5-6,7.5l-18.6-4.4L235.4,186.3z"/>
			
				<linearGradient id="path4043_2_" gradientUnits="userSpaceOnUse" x1="66.0242" y1="412.5364" x2="104.7347" y2="419.6031" gradientTransform="matrix(-1.1426 0.3903 -0.3903 -1.1426 498.851 629.7686)">
				<stop  offset="0" style="stop-color:#D7F4E3"/>
				<stop  offset="1" style="stop-color:#D7F4E3;stop-opacity:0"/>
			</linearGradient>
			<path id="path4043_1_"  class="st12" d="M241.1,171.7c-2-0.3-4-0.6-6.1-0.8
				c0.5,3.7,1.1,7.4,1.6,11.1c4.2,1,8.4,2,12.6,3c1.8,1.3,4.1,0.5,5.2-1.3c2-1.5,3-4.2,1.4-6.4C252.2,173.4,246.2,172.9,241.1,171.7
				L241.1,171.7z"/>
		</g>
		<g id="g4078_1_" transform="matrix(0.1861827,0.74562625,-0.74562625,0.1861827,168.73364,167.63126)">
			<path id="path4080_1_"  class="st13" d="M-131.6-164.7
				c-0.7,1.6-4.6,1.8-4,3.5c0.7,2.2,5.7-1.2,7,0.7c2.5,3.5-5.5,8.9-3.1,12.4c2.6,3.7,11.4-2,13.6,1.4c0.9,1.6-6.9,9-5.8,12.4
				c0.6,2,4.8,3.9,4.8,3.9l8.4-3.5c0,0-5.5-1.1-6.2-3.3c-0.6-2.1,2.6-3.6,3-5.7c0.5-3,0.7-6.8-1.4-8.9c-2.7-2.6-9.5,2-11.4-1.4
				c-1.9-3.5,6.7-7,5.2-10.7c-0.8-1.8-4.6,0-5.5-1.7c-1-1.9,2-6.2,2-6.2l-5.6-1.1C-132.3-169.2-131.2-169-131.6-164.7z"/>
			<path id="path4082_1_"  class="st14" d="M-132.7-163.8
				c-0.7,1.6-4.6,1.8-4,3.5c0.7,2.2,5.7-1.2,7,0.7c2.5,3.5-5.5,8.9-3.1,12.4c2.6,3.7,11.4-2,13.6,1.4c0.9,1.6-6.9,9-5.8,12.4
				c0.6,2,4.8,3.9,4.8,3.9l8.4-3.5c0,0-5.5-1.1-6.2-3.3c-0.6-2.1,2.6-3.6,3-5.7c0.5-3,0.7-6.8-1.4-8.9c-2.7-2.6-9.5,2-11.4-1.4
				c-1.9-3.5,6.7-7,5.2-10.7c-0.8-1.8-4.6,0-5.5-1.7c-1-1.9,2-6.2,2-6.2l-5.6-1.1C-133.4-168.2-132.3-168.1-132.7-163.8z"/>
			<path id="path4084_1_"  class="st15" d="M-115.4-132.7c-2.2-0.8-4.7-3.1-3.5-5.7
				c3-2.7,4.1-7.1,2.3-10.8c-2.7-3.8-8.1,1.5-11.3-1.6c-3.2-2.8,0.7-6.9,2.8-9c1.2-0.7,2.4-3,0.3-3c-2.3,0.9-5-0.8-4.7-3.4
				c-0.4-1.4,2.4-3.2,0.9-4.2c-3-1.6-3.1,2.1-2.7,4c0.7,2.6-1,4.9-3.5,5.6c0.6,0.2,2.6-1,3.9-0.6c3.4,0.3,3.5,4.6,1.9,6.9
				c-0.5,2.3-4.6,4.8-2.1,7.1c4.1,1.6,9.7-3.2,13.1,1c0.5,4-3.7,6.6-5.1,10c-2,2.3,0.9,5.4,3.2,5.4
				C-118.4-131.5-116.9-132.1-115.4-132.7z"/>
		</g>
		<path id="path3987_1_"  class="st5" d="M248.6,59.4l-0.4-5.6l-6.8-0.8l-1.3-2.4
			c0,0-4.8,2.5-8.9,3.6c-4.1,1.1,0.2-10.7,0.2-10.7l4.9-10.3l4.1,0.1c0,0-0.6,6.3-3.4,8.6c-2.9,2.3,10-0.7,10-0.7l1.6,4.3l5.8,0.3
			l-0.8,5.6l2.6,8.4L248.6,59.4z"/>
		<path id="path3985_1_"  class="st3" d="M247.7,38.7l-5.6,0.4l-0.8,6.8l-2.4,1.3
			c0,0,2.5,4.8,3.6,8.9c1.1,4.1-10.7-0.2-10.7-0.2L221.5,51l0.1-4.1c0,0,6.3,0.6,8.6,3.4c2.3,2.9-0.7-10-0.7-10l4.3-1.6l0.3-5.8
			l5.6,0.8l8.4-2.6L247.7,38.7z"/>
		<path id="path3995_1_"  class="st5" d="M219.8,57.1l-0.4-5.6l-6.8-0.8l-1.3-2.4
			c0,0-4.8,2.5-8.9,3.6c-4.1,1.1,0.2-10.7,0.2-10.7l4.9-10.3l4.1,0.1c0,0-0.6,6.3-3.4,8.6c-2.9,2.3,10-0.7,10-0.7l1.6,4.3l5.8,0.3
			l-0.8,5.6l2.6,8.4L219.8,57.1z"/>
		<path id="path4009_1_"  class="st10" d="M274.9,81.4L259.4,73
			l9.1-9.3l8.9-5.8c0,0,5-0.4,6.6,1.2c2.4,2.2,2.5,9.3,2.5,9.3l-14.6,12.3L274.9,81.4z"/>
		<path id="path4037_1_"  class="st16" d="M178.5,51.2l-5.6,0.4l-0.8,6.8l-2.4,1.3
			c0,0,2.5,4.8,3.6,8.9c1.1,4.1-10.7-0.2-10.7-0.2l-10.3-4.9l0.1-4.1c0,0,6.3,0.6,8.6,3.4c2.3,2.9-0.7-10-0.7-10l4.3-1.6l0.3-5.8
			l5.6,0.8l8.4-2.6L178.5,51.2z"/>
		<g id="g4057_1_" transform="matrix(0.54712571,0.53969988,-0.53969988,0.54712571,208.94457,84.321117)">
			<path id="path4049_1_"  class="st13" d="M0.8-65.6
				c-1.8,0.1-3.7-3.2-4.9-2C-5.8-66-0.4-63.1-1.5-61c-2,3.8-10.5-0.8-12.4,2.9c-2.1,4,7,9.2,5,12.7c-1,1.5-11.2-2-13.7,0.5
				c-1.5,1.4-1.3,6.1-1.3,6.1l7,5.9c0,0-1.5-5.4,0.1-7c1.5-1.5,4.4,0.7,6.4,0c2.9-0.9,6.4-2.5,7.3-5.4c1.1-3.7-6.1-7.6-4-10.7
				c2.2-3.3,9.4,2.8,11.9-0.3c1.2-1.5-2.1-4.1-1-5.6c1.3-1.8,6.4-1.1,6.4-1.1l-1.6-5.5C4.4-68.3,4.8-67.2,0.8-65.6z"/>
			<path id="path4047_1_"  class="st14" d="M-0.5-66.1
				c-1.8,0.1-3.7-3.2-4.9-2c-1.7,1.7,3.7,4.5,2.6,6.6c-2,3.8-10.5-0.8-12.4,2.9c-2.1,4,7,9.2,5,12.7c-1,1.5-11.2-2-13.7,0.5
				c-1.5,1.4-1.3,6.1-1.3,6.1l7,5.9c0,0-1.5-5.4,0.1-7c1.5-1.5,4.4,0.7,6.4,0c2.9-0.9,6.4-2.5,7.3-5.4c1.1-3.7-6.1-7.6-4-10.7
				c2.2-3.3,9.4,2.8,11.9-0.3c1.2-1.5-2.1-4.1-1-5.6c1.3-1.8,6.4-1.1,6.4-1.1l-1.6-5.5C3.1-68.8,3.5-67.7-0.5-66.1z"/>
			<path id="path4051_1_"  class="st15" d="M-20.2-36.5c-0.3-2.3,0.6-5.6,3.4-5.7
				c3.8,1.4,8.2,0.4,10.7-2.9c2.1-4.2-5-6.5-3.7-10.8c1-4.1,6.4-2.5,9.3-1.6c1.1,0.7,3.8,0.7,2.8-1.2c-1.8-1.6-1.6-4.8,0.9-5.7
				c1.1-1,4,0.7,4.1-1.2c0-3.4-3.3-1.9-4.8-0.6c-2,1.8-4.8,1.4-6.6-0.5c0.1,0.6,2.1,1.9,2.3,3.2c1.3,3.2-2.5,5.2-5.3,4.9
				c-2.3,0.6-6.4-1.9-7.3,1.4c0.5,4.4,7.3,7.1,5.1,12.1c-3.3,2.3-7.5-0.2-11.2,0.1c-2.9-0.7-4.4,3.2-3.3,5.3
				C-22.7-38.6-21.5-37.6-20.2-36.5z"/>
		</g>
		<g id="g4070_1_" transform="matrix(0.27412378,0.71796842,-0.71796842,0.27412378,225.221,93.785388)">
			<path id="path4072_1_"  class="st13" d="M-72.9-18.5
				c-1.1,1.4-4.9,0.7-4.7,2.4c0.2,2.4,5.8,0.1,6.7,2.3c1.6,4-7.5,7.3-6,11.3c1.7,4.2,11.5,0.8,12.9,4.5c0.5,1.7-8.8,7.2-8.6,10.7
				c0.1,2.1,3.7,5,3.7,5l9-1.4c0,0-5.1-2.4-5.2-4.7c-0.1-2.1,3.4-2.9,4.3-4.8c1.2-2.8,2.3-6.5,0.7-9c-2-3.2-9.7-0.3-10.7-4
				c-1-3.8,8.2-5.2,7.6-9.1c-0.3-1.9-4.5-1.1-4.9-2.9c-0.5-2.1,3.4-5.6,3.4-5.6l-5.2-2.4C-72.5-23-71.4-22.6-72.9-18.5z"/>
			<path id="path4074_1_"  class="st14" d="M-74.1-17.8
				c-1.1,1.4-4.9,0.7-4.7,2.4c0.2,2.4,5.8,0.1,6.7,2.3c1.6,4-7.5,7.3-6,11.3c1.7,4.2,11.5,0.8,12.9,4.5c0.5,1.7-8.8,7.2-8.6,10.7
				c0.1,2.1,3.7,5,3.7,5l9-1.4c0,0-5.1-2.4-5.2-4.7c-0.1-2.1,3.4-2.9,4.3-4.8c1.2-2.8,2.3-6.5,0.7-9c-2-3.2-9.7-0.3-10.7-4
				c-1-3.8,8.2-5.2,7.6-9.1c-0.3-1.9-4.5-1.1-4.9-2.9c-0.5-2.1,3.4-5.6,3.4-5.6l-5.2-2.4C-73.7-22.3-72.7-21.9-74.1-17.8z"/>
			<path id="path4076_1_"  class="st15" d="M-64.7,16.5c-2-1.3-3.8-4.2-2.1-6.3
				c3.5-1.9,5.7-5.9,4.8-10c-1.7-4.3-8.2-0.5-10.6-4.3c-2.5-3.5,2.3-6.5,4.9-8.1c1.3-0.4,3-2.4,1-2.9c-2.4,0.3-4.7-2-3.7-4.4
				c-0.1-1.5,3.1-2.6,1.8-3.9c-2.5-2.3-3.5,1.3-3.6,3.2c0.1,2.7-2.1,4.6-4.7,4.6c0.5,0.4,2.8-0.3,3.9,0.4c3.3,1.1,2.3,5.3,0.2,7.1
				c-1,2.1-5.6,3.5-3.7,6.4c3.6,2.5,10.2-0.8,12.4,4.1c-0.5,4-5.1,5.5-7.3,8.5c-2.5,1.7-0.4,5.4,1.9,6C-67.9,17-66.3,16.7-64.7,16.5
				z"/>
		</g>
		<path id="path3004_1_"  class="st0" d="M348.1,105.9
			c0,0,3.5,12.2,1.7,17.5c-2.7,8.1-14.5,11.3-21.8,12.8c-63,13.7-121.9,31.2-187.7,46.8c-5.9,1.4-11.2-5.3-15.3-9.6
			c-6.2-6.6-11.3-14.9-13.3-23.8c-3.6-15.8-2.8-33.5,3.2-48.6c6.8-17.5,19-34.6,35.4-43.7c20.3-11.2,46.3-12.8,69-8.4
			c23,4.4,42.6,20.1,61.7,33.7c19.8,14,29.9,46,54,48.7c4.1,0.5,8.5-2.6,10.8-6.1C349.4,119.8,348.1,105.9,348.1,105.9L348.1,105.9z
			"/>
		
			<linearGradient id="path3039_2_" gradientUnits="userSpaceOnUse" x1="429.1947" y1="128.2559" x2="119.3702" y2="-138.0263" gradientTransform="matrix(-0.7007 0.7134 0.7134 0.7007 415.5254 -148.1076)">
			<stop  offset="0" style="stop-color:#AA8800"/>
			<stop  offset="1" style="stop-color:#EEB534;stop-opacity:0"/>
		</linearGradient>
		<path id="path3039_1_"  class="st17" d="M120,121.7c0.5,1.4,2.1,1.6,1.2-0.4
			c-0.6-2.6,3.1-2.8,4.2-1.2c1.8,1.5-1.8,2.9-0.7,4.3c2,1.8,1.3-1.5,2-2.6c0.9-1.6,2.6,0.7,3,0.5c0.5-2.5-2.3-1.1-3.6-1.8
			c-1-2.1-3.8-3.8-5.9-1.8c-0.1,0.1-0.2,0.2-0.3,0.3C119.4,119.8,119.6,120.9,120,121.7z M162.8,78.4c-0.8,1.1,2,4.7,1.7,2.2
			c-1.1-2.6,2.4-3.7,4-2c1.7,1.3-0.5,2.8-0.8,4.1c0.8,1.5,2.5,0.9,1.9-0.9c-0.1-2.1,2.5-2.3,3.3-0.5c1-2.5-2.2-1.6-3.6-2.1
			c-0.9-2-3.6-3.7-5.6-1.9c-0.1,0.1-0.2,0.2-0.3,0.2C163.1,77.7,162.8,78,162.8,78.4z M196.4,53.5c-0.8,1.1,2,4.7,1.7,2.2
			c-1.1-2.6,2.4-3.7,4-2c1.7,1.3-0.5,2.8-0.8,4.1c0.8,1.5,2.5,0.9,1.9-0.9c-0.1-2.1,2.5-2.3,3.3-0.5c1-2.5-2.2-1.6-3.6-2.1
			c-0.9-2-3.6-3.7-5.6-1.9c-0.1,0.1-0.2,0.2-0.3,0.2C196.7,52.8,196.5,53.1,196.4,53.5z M124.2,145.6c-0.8,1.1,2,4.7,1.7,2.2
			c-1.1-2.6,2.4-3.7,4-2c1.7,1.3-0.5,2.8-0.8,4.1c0.8,1.5,2.5,0.9,1.9-0.9c-0.1-2.1,2.5-2.3,3.3-0.5c1-2.5-2.2-1.6-3.6-2.1
			c-0.9-2-3.6-3.7-5.6-1.9c-0.1,0.1-0.2,0.2-0.3,0.2C124.5,145,124.2,145.3,124.2,145.6z M165.4,107.6c-0.8,1.1,2,4.7,1.7,2.2
			c-1.1-2.6,2.4-3.7,4-2c1.7,1.3-0.5,2.8-0.8,4.1c0.8,1.5,2.5,0.9,1.9-0.9c-0.1-2.1,2.5-2.3,3.3-0.5c1-2.5-2.2-1.6-3.6-2.1
			c-0.9-2-3.6-3.7-5.6-1.9c-0.1,0.1-0.2,0.1-0.3,0.2C165.7,106.9,165.4,107.2,165.4,107.6z M158.3,123.7c-0.2,1.5,1.1,4,2.5,3.7
			c1.2-0.2-0.4-2.9,0.7-3.5c0.9-0.5,2.6,0,3.1,1c0.5,1-1.7,2.1-1.4,3.2c0.3,0.9,1.5,1.7,2.4,1.4c1.2-0.4,0.2-3.1,1.4-3.6
			c0.8-0.3,1.6,1.7,2.3,1.2c0.8-0.5,0.5-2.1-0.1-2.7c-0.8-0.9-2.5,0.1-3.5-0.5c-0.6-0.3-0.6-1.2-1.1-1.6c-0.9-0.7-2.2-1.3-3.3-1.1
			c-0.8,0.1-1.8,0.6-2.4,1.2C158.6,122.8,158.4,123.2,158.3,123.7z M195.7,103.7c-0.2-1.1,0.1-4,2.2-3.7c2.8-0.1,2.9,3,1.3,4.6
			c0.1,2.7,3.1,0.1,1.9-1.5c0.3-2.8-3.8-6-6.3-3.5C193.6,100.7,194.2,103.1,195.7,103.7z M213.2,82.2c-0.8,1.1,2,4.7,1.7,2.2
			c-1.1-2.6,2.4-3.7,4-2c1.7,1.3-0.5,2.8-0.8,4.1c0.8,1.5,2.5,0.9,1.9-0.9c-0.1-2.1,2.5-2.3,3.3-0.5c1-2.5-2.2-1.6-3.6-2.1
			c-0.9-2-3.6-3.7-5.6-1.9c-0.1,0.1-0.2,0.2-0.3,0.2C213.5,81.5,213.2,81.8,213.2,82.2z M144.9,154.2c-0.2,1.5,1.1,4,2.5,3.7
			c1.2-0.2-0.4-2.9,0.7-3.5c0.9-0.5,2.6,0,3.1,1c0.5,1-1.7,2.1-1.4,3.2c0.3,0.9,1.5,1.7,2.4,1.4c1.2-0.4,0.2-3.1,1.4-3.6
			c0.8-0.3,1.6,1.7,2.3,1.2c0.8-0.5,0.5-2-0.1-2.7c-0.8-0.9-2.5,0.1-3.5-0.5c-0.6-0.3-0.6-1.2-1.1-1.6c-0.9-0.7-2.1-1.3-3.3-1.1
			c-0.8,0.1-1.8,0.6-2.4,1.2C145.3,153.2,145,153.7,144.9,154.2z M203.9,103.3c1.6-0.2-0.7-2.6-1.9-1.9
			C202.5,101.8,203.3,102.8,203.9,103.3z M176.5,137.1c-0.2,1.5,1,4,2.5,3.7c1.2-0.2-0.4-2.9,0.7-3.5c0.9-0.5,2.6,0,3.1,1
			c0.5,1-1.7,2.1-1.4,3.2c0.3,0.9,1.5,1.7,2.4,1.4c1.2-0.4,0.2-3.1,1.4-3.6c0.8-0.3,1.6,1.7,2.3,1.2c0.8-0.5,0.5-2.1-0.1-2.7
			c-0.8-0.9-2.5,0.1-3.5-0.5c-0.6-0.3-0.6-1.2-1.1-1.6c-0.9-0.7-2.1-1.4-3.3-1.2c-0.8,0.1-1.8,0.6-2.4,1.2
			C176.9,136.2,176.6,136.6,176.5,137.1z M242.7,74.6c-0.8,1.1,2,4.7,1.7,2.2c-1.1-2.6,2.4-3.7,4-2c1.7,1.3-0.5,2.8-0.8,4.1
			c0.8,1.5,2.5,0.9,1.9-0.9c-0.1-2.1,2.5-2.3,3.3-0.5c1-2.5-2.2-1.6-3.6-2.1c-0.9-2-3.6-3.7-5.6-1.9c-0.1,0.1-0.2,0.2-0.3,0.2
			C243,73.9,242.8,74.2,242.7,74.6z M145.2,173.9c-0.8,1.1,2,4.7,1.7,2.2c-1.1-2.6,2.4-3.7,4-2c1.7,1.3-0.5,2.8-0.8,4.1
			c0.8,1.5,2.5,0.9,1.9-0.9c-0.1-2.1,2.5-2.3,3.3-0.5c1-2.5-2.2-1.6-3.6-2.1c-0.9-2-3.6-3.7-5.6-1.9c-0.1,0.1-0.2,0.2-0.3,0.2
			C145.5,173.2,145.2,173.5,145.2,173.9z M210.2,116.5c-0.3,0.3-0.5,0.6-0.5,1c-0.6,1,2.1,4.4,1.7,1.9c-1.1-2.5,2.1-3.7,3.7-2.1
			c2.5,1.4-1.1,3.2-0.3,4.6c2.3,2.1,1.2-1.9,2.4-2.8c1-1.2,2.4,1.5,2.8,0.7c0.3-2.5-2.5-1-3.8-1.8c-0.9-2.2-3.8-3.7-5.8-1.8
			C210.4,116.3,210.3,116.4,210.2,116.5L210.2,116.5z M173.1,159.4c-0.8,1.1,2,4.7,1.7,2.2c-1.1-2.6,2.4-3.7,4-2
			c1.7,1.3-0.5,2.8-0.8,4.1c0.8,1.5,2.5,0.9,1.9-0.9c-0.1-2.1,2.5-2.3,3.3-0.5c1-2.5-2.2-1.6-3.6-2.1c-0.9-2-3.6-3.7-5.6-1.9
			c-0.1,0.1-0.2,0.2-0.3,0.2C173.4,158.7,173.2,159,173.1,159.4z M265.2,86.2c1.8,0.8,1.7,3.4-0.4,3.4c-2-0.6-2.4,1.4-0.7,2
			c1.1-1.2,3.4-2.5,4.3-0.3c1.3,1.7-0.2,4.3-2.3,3.4c-2.4-0.4,0.6,2,1.7,1.7c0.6,0.1,1.2-0.3,1.5-0.7c1.9-2,0.5-4.9-1.8-5.7
			C266.6,88.5,267.9,85.2,265.2,86.2L265.2,86.2z M220,134.8c-0.2,1.5,1,4,2.5,3.7c1.2-0.2-0.4-2.9,0.7-3.5c0.9-0.5,2.6,0.1,3.1,1
			c0.5,1-1.7,2.1-1.4,3.2c0.3,0.9,1.5,1.7,2.4,1.4c1.2-0.4,0.2-3.1,1.4-3.6c0.8-0.3,1.6,1.7,2.3,1.2c0.8-0.5,0.5-2-0.1-2.7
			c-0.8-0.9-2.5,0.1-3.5-0.5c-0.6-0.3-0.6-1.2-1.1-1.6c-0.9-0.7-2.1-1.4-3.3-1.2c-0.8,0.1-1.8,0.6-2.4,1.2
			C220.4,133.9,220.1,134.3,220,134.8z M248.1,108.6c-0.2,1.1,0.5,2.4,1.2,3.3c0.4,0.5,1.3,0.5,1.7,1.1c0.6,1-0.3,2.7,0.6,3.5
			c0.7,0.6,2.3,0.8,2.7,0c0.4-0.8-1.6-1.5-1.3-2.3c0.4-1.2,3.2-0.3,3.5-1.5c0.3-0.9-0.6-2.1-1.5-2.4c-1.1-0.3-2.1,1.9-3.1,1.4
			c-1-0.4-1.6-2.1-1.1-3c0.6-1,3.3,0.5,3.5-0.7c0.3-1.5-2.3-2.7-3.8-2.5c-0.5,0.1-1,0.4-1.3,0.7
			C248.6,106.8,248.2,107.8,248.1,108.6z M196.3,163.6c-0.2,1.5,1.1,4,2.5,3.7c1.2-0.2-0.4-2.9,0.7-3.5c0.9-0.5,2.6,0,3.1,1
			c0.5,1-1.7,2.1-1.4,3.2c0.3,0.9,1.5,1.7,2.4,1.4c1.2-0.4,0.2-3.1,1.4-3.6c0.8-0.3,1.6,1.7,2.3,1.2c0.8-0.5,0.5-2-0.1-2.7
			c-0.8-0.9-2.5,0.1-3.5-0.5c-0.6-0.3-0.6-1.2-1.1-1.6c-0.9-0.7-2.2-1.3-3.3-1.1c-0.8,0.1-1.8,0.6-2.4,1.2
			C196.7,162.6,196.4,163.1,196.3,163.6z M234.9,149.2c-0.8,1.1,2,4.7,1.7,2.2c-1.1-2.6,2.4-3.7,4-2c1.7,1.3-0.5,2.8-0.8,4.1
			c0.8,1.5,2.5,0.9,1.9-0.9c-0.1-2.1,2.5-2.3,3.3-0.5c1-2.5-2.2-1.6-3.6-2.1c-0.9-2-3.6-3.7-5.6-1.9c-0.1,0.1-0.2,0.2-0.3,0.2
			C235.2,148.6,235,148.9,234.9,149.2z M283.3,102.3c-0.8,1.1,2,4.7,1.7,2.2c-1.1-2.6,2.4-3.7,4-2c1.7,1.3-0.5,2.8-0.8,4.1
			c0.8,1.5,2.5,0.9,1.9-0.9c-0.1-2.1,2.5-2.3,3.3-0.5c1-2.5-2.2-1.6-3.6-2.1c-0.9-2-3.6-3.7-5.6-1.9c-0.1,0.1-0.2,0.2-0.3,0.2
			C283.6,101.6,283.4,101.9,283.3,102.3z M267.7,136.1c-0.2,1.5,1.1,4,2.5,3.7c1.2-0.2-0.4-2.9,0.7-3.5c0.9-0.5,2.6,0,3.1,1
			c0.5,1-1.7,2.1-1.4,3.2c0.3,0.9,1.5,1.7,2.4,1.4c1.2-0.4,0.2-3.1,1.4-3.6c0.8-0.3,1.6,1.7,2.3,1.2c0.8-0.5,0.5-2.1-0.1-2.7
			c-0.8-0.9-2.5,0.1-3.5-0.5c-0.6-0.3-0.6-1.2-1.1-1.6c-0.9-0.7-2.2-1.3-3.3-1.1c-0.8,0.1-1.8,0.6-2.4,1.2
			C268,135.2,267.7,135.6,267.7,136.1z M299.3,124.1c-0.8,1.1,2,4.7,1.7,2.2c-1.1-2.6,2.4-3.7,4-2c1.7,1.3-0.5,2.8-0.8,4.1
			c0.8,1.5,2.5,0.9,1.9-0.9c-0.1-2.1,2.5-2.3,3.3-0.5c1-2.5-2.2-1.6-3.6-2.1c-0.9-2-3.6-3.7-5.6-1.9c-0.1,0.1-0.2,0.2-0.3,0.2
			C299.6,123.4,299.3,123.7,299.3,124.1z"/>
		<path id="path3949_1_"  class="st8" d="M321.1,90.7
			c-0.8,0.1-1.1-1.8-1.8-1.5c-1,0.5-0.2,2.3,0.3,3.3c0.4,0.8,1.2,1.6,2.1,1.7c0.8,0.1,1.7-0.4,2.3-1c0.6-0.6,1.1-1.5,0.9-2.3
			c-0.2-1.1-1.2-2.7-2.3-2.6C321.6,88.5,322,90.6,321.1,90.7z"/>
		<path id="path3951_1_"  class="st8" d="M300.7,80.7
			c-1.3-0.6-2-0.5-2.6,0.2c-0.9,0.9-1.1,3-0.1,3.7c0.9,0.6,1.9-1.2,3-1.4c0.8-0.2,1.9,0.6,2.6,0.1c0.7-0.5,1.1-1.5,0.9-2.3
			c-0.2-1.1-1.2-2.7-2.3-2.6C301.3,78.5,301.5,81.1,300.7,80.7z"/>
		<path id="path3953_1_"  class="st8" d="M326.2,107.9
			c-1.3-0.6-2-0.5-2.6,0.2c-0.9,0.9-1.1,3-0.1,3.7c0.9,0.6,1.9-1.2,3-1.4c0.8-0.2,1.9,0.6,2.6,0.1c0.7-0.5,1.1-1.5,0.9-2.3
			c-0.2-1.1-1.2-2.7-2.3-2.6C326.8,105.7,327.1,108.3,326.2,107.9z"/>
		<path id="path3955_1_"  class="st8" d="M342.5,118.8
			c-1.3-0.6-2-0.5-2.6,0.2c-0.9,0.9-1.1,3-0.1,3.7c0.9,0.6,1.9-1.2,3-1.4c0.8-0.2,1.9,0.6,2.6,0.1c0.7-0.5,1.1-1.5,0.9-2.3
			c-0.2-1.1-1.2-2.7-2.3-2.6C343.1,116.5,343.3,119.2,342.5,118.8z"/>
		<path id="path3957_1_"  class="st8" d="M281.2,72.9
			c-1.3-0.6-2-0.5-2.6,0.2c-0.9,0.9-1.1,3-0.1,3.7c0.9,0.6,1.9-1.2,3-1.4c0.8-0.2,1.9,0.6,2.6,0.1c0.7-0.5,1.1-1.5,0.9-2.3
			c-0.2-1.1-1.2-2.7-2.3-2.6C281.8,70.6,282,73.3,281.2,72.9z"/>
		
			<linearGradient id="path3006_2_" gradientUnits="userSpaceOnUse" x1="300.9247" y1="502.1241" x2="197.2147" y2="345.5702" gradientTransform="matrix(-0.8461 0.8614 -0.8614 -0.8461 812.0731 274.8863)">
			<stop  offset="0" style="stop-color:#EEB534"/>
			<stop  offset="1" style="stop-color:#EEB534;stop-opacity:0"/>
		</linearGradient>
		<path id="path3006_1_"  class="st18" d="M114.1,104.4
			c-5.9,15.1-6.7,32.8-3.2,48.6c2,8.9,7,17.2,13.3,23.8c4.1,4.4,9.4,11,15.3,9.6c65.8-15.6,124.7-33.1,187.7-46.8
			c3.9-0.8,14.4-4.7,18.7-7.8c-4.2,1.1-7.4,2.8-11.7,2.9C310.1,132,300,100,280.2,86c-19.1-13.6-38.7-29.3-61.7-33.7
			c-22.8-4.4-48.7-2.8-69,8.4c-5.1,2.8-9.8,6.4-14.1,10.6C126,80.5,118.8,92.4,114.1,104.4z"/>
		<path id="path3959_1_"  class="st19" d="M324.1,110.5c0.6-0.8,2-1.7,3.3-1.2
			c1.8,0.9,1.6-2,0.6-2.1c0.3,2.1-2.1,2.1-3.4,1.7C324.2,109.2,324.1,109.9,324.1,110.5z"/>
		<path id="path3965_1_"  class="st19" d="M323.3,90.2c-0.4,0.2-1.3,2.1-2.6,1.7
			C321.8,94.5,324.6,91.8,323.3,90.2z M323,92.5"/>
		<path id="path3973_1_"  class="st9" d="M305.6,105.8
			c0.9,1,2.7,1.3,3.9,0.7c1.3-0.6,2.8-2.7,1.9-3.9c-0.5-0.7-1.8,1.1-2.5,0.6c-0.9-0.7,0.9-2.7,0-3.5c-0.9-0.7-2.7-0.1-3.5,0.8
			C304.3,102,304.5,104.5,305.6,105.8z"/>
		<path id="path3979_1_"  class="st20" d="M287.6,47.7
			c0,0-5,4.3-4.8,7.1c0.1,1.9,2,4,3.8,4.3c0.8,0.1,2.2-1.1,2.2-1.1l-0.5-4.3l3.7-6.6l6.7-6.9L287.6,47.7z"/>
		<path id="path3983_1_"  class="st3" d="M280.1,51l-5.4-1.5l-3,6.2l-2.7,0.4c0,0,0.8,5.4,0.5,9.6
			c-0.3,4.2-10-3.8-10-3.8l-8.1-8l1.5-3.9c0,0,5.8,2.6,7,6.1c1.2,3.4,2.6-9.6,2.6-9.6l4.6,0l2.3-5.4l5,2.6l8.8,0.3L280.1,51z"/>
		<path id="path3999_1_"  class="st21" d="M264.1,51c0,2.9-0.3,7.9-4.1,8c1.3,1.6,4.4,3.8,6.8,4.8
			c1-0.6-0.1-3.3,0-4.7c-1.4-3.6,2.6-5.5,4.6-7.6c-0.1-3.2,3.6-5.1,6.4-3.9c1.1,1.1,1.7,0,1.8-1.2c-2.5,0-5.5,0.7-7.6-1.1
			c-1.1-1.8-2.6-0.1-2.7,1.4c-0.1,2.6-3,2-4.7,2.3C264.1,49.4,264.2,50.3,264.1,51z"/>
		
			<linearGradient id="path4011_2_" gradientUnits="userSpaceOnUse" x1="175.5011" y1="434.4265" x2="214.2115" y2="441.4931" gradientTransform="matrix(-0.8461 0.8614 -0.8614 -0.8461 812.0731 274.8863)">
			<stop  offset="0" style="stop-color:#D7F4E3"/>
			<stop  offset="1" style="stop-color:#D7F4E3;stop-opacity:0"/>
		</linearGradient>
		<path id="path4011_1_"  class="st22" d="M266.7,68.1c-1.5,1.4-2.9,2.9-4.3,4.4
			c3.3,1.8,6.6,3.6,9.9,5.4c3.3-2.8,6.6-5.6,10-8.3c2.1-0.7,2.9-3,2.1-5c0-2.5-1.6-4.9-4.3-4.9C274.6,60.3,270.6,64.7,266.7,68.1
			L266.7,68.1z"/>
	</g>
	
		<radialGradient id="SVGID_1_" cx="327.9119" cy="190.4815" r="105.1231" gradientTransform="matrix(1.5029 0 0 1 -215.7544 0)" gradientUnits="userSpaceOnUse">
		<stop  offset="0" style="stop-color:#FFFF69"/>
		<stop  offset="5.841064e-02" style="stop-color:#FFFF77;stop-opacity:0.9416"/>
		<stop  offset="0.2841" style="stop-color:#FFFFA7;stop-opacity:0.7159"/>
		<stop  offset="0.4981" style="stop-color:#FFFFCD;stop-opacity:0.5019"/>
		<stop  offset="0.6949" style="stop-color:#FFFFE9;stop-opacity:0.3051"/>
		<stop  offset="0.8683" style="stop-color:#FFFFF9;stop-opacity:0.1317"/>
		<stop  offset="1" style="stop-color:#FFFFFF;stop-opacity:0"/>
	</radialGradient>
	<ellipse class="st23" cx="277.1" cy="190.5" rx="158" ry="105.1"/>
	<path d="M443.3,188.3c-3.4,0-6.7,0.2-9.8,0.4c-1.7,0.1-3.3,0.2-4.9,0.3c-10.7,0.5-18.8,0.6-30.7,0.6c-1.1,0-2,0.1-3,0.3
		c-1.4-0.5-2.9-0.9-4.5-0.9l-1.3,0l-0.3,0.1c-0.7,0-1.3,0.1-1.9,0.1c-1,0.1-1.9,0.1-2.8,0.1c-3.1,0-6.2-0.2-8.2-0.6l-1.2-0.2h-1.2
		c-3.7,0-7.1,1.6-9.5,4.1c-1.6-0.9-3.4-1.5-5.3-1.7l-0.5-0.1l-19.5-0.8h-0.3c-3.8,0-7.3,1.7-9.7,4.3c-2.5-3-6.3-5-10.4-5l-19.7-0.6
		h-0.3c-5.5,0-10.8,3.4-13,8.5l-0.1,0.2l-3.2,7.7c-0.2-1.5-0.7-3-1.3-4.3c2.2-3.7,3.4-8,3.4-12.6c0-7.6-3.4-14.4-8.7-18.9
		c12-8.4,16.8-23.7,11.9-40.6c-5.2-17.9-18-28.5-34-28.5c-3.6,0-7.2,0.5-10.9,1.6c-9.7,2.9-17,8.6-21.2,16.2
		c-4.8-2.9-10.4-4.5-16.5-4.5c-3.7,0-7.4,0.6-11.2,1.7c-6.9,2-12.7,6-17,11.4c-2.1-1.3-4.5-2-7.1-2c-1.3,0-2.6,0.2-3.9,0.6
		l-15.9,4.9l-0.5,0.2c-1.4,0.6-2.6,1.3-3.7,2.3c-2.1,0.2-4.1,0.5-6,1.1c-0.7,0.2-1.4,0.4-2.1,0.7c-0.5-2.2-1.1-4.2-1.6-6.1
		c-1.6-5.6-6.6-9.3-12.3-9.3c-1.9,0-3.4,0.4-4.1,0.6c-3.8,1.1-7.3,2.4-10.8,3.7c-1.9,0.7-3.7,1.3-5.4,2c-12,4.1-21,6.8-34.4,10.8
		c-1,0.3-3.8,1.1-6.2,3.4c-3.6,3.4-4.9,8.6-3.5,13.4c0.6,1.9,1,4,1.5,6.2c0.6,2.4,1.1,5,1.9,7.6c1.7,5.9,6.9,9.8,13,9.8
		c1.4,0,2.7-0.2,4.1-0.6c1.3-0.4,2.5-0.8,3.5-1.1c1,3.7,1.9,7.5,2.8,11.2c1.9,7.5,3.8,15.3,6,23c1.9,6.3,7.4,10.6,13.7,10.6
		c1.4,0,2.7-0.2,4-0.6c3-0.9,5.8-1.9,8.5-2.8c2.5-0.9,4.8-1.7,7.2-2.4c3.5-1,6.4-3.2,8.2-6.3c1.2-2,1.9-4.3,1.9-6.7
		c4.3,2.3,9.2,3.5,14.3,3.5c0,0,0,0,0,0c2.7,0,5.5-0.4,8.3-1c-5.4,12.2-6.4,26-2.5,39.1c3.4,11.6,9.4,21.4,17.3,28.2
		c8.6,7.4,19.3,11.4,30.8,11.4c5.3,0,10.7-0.8,16.2-2.4c7.9-2.3,14.5-6.4,19.7-11.8c2.4,2,5.4,3.2,8.7,3.3l18.7,0.5h0.3
		c2,0,4-0.4,5.7-1.2c0,0,0.1,0,0.1,0l14.4,2.5h1.3c5.5,0,10.6-3.3,12.8-8.3l1-2.2l1.5-0.1c1.9,5.4,7.2,9.2,13.2,9.2h1.1l11.1-1.5
		c1.6,0.8,3.5,1.4,5.4,1.4l15.6,0.9h0.3c4.6,0,8.6-2.3,11-5.9c2.8,3.1,6.8,4.9,10.7,4.9l15.5-0.1c4.8,0,9-2.7,11.3-6.6
		c2.4,4.2,6.9,7,12.1,7c2.7,0,5.3-0.1,7.8-0.3c2.2-0.1,4.3-0.2,6.3-0.2c7.7,0,13.7-6,13.7-13.7l0-1.3c0-15.1,0.2-23.9,0.5-29
		c0.4,0,0.7,0,1.1,0c0.3,0,0.7,0,1.2,0c6.1,0,11.1-3.9,12.8-9.9c1.4-5,1.6-10.9,1.6-15.4C456.4,194.9,451.8,188.3,443.3,188.3z
		 M236.3,185.8c-1.7-1.8-3.6-3.5-5.7-5c3-2.7,5.3-5.8,6.9-9.2c1.1,0.6,2.3,1.1,3.5,1.5C238.4,176.8,236.7,181.1,236.3,185.8z"/>
	<g>
		<path class="st24" d="M126.8,145.4c0,1.6-0.7,1.4-1.8,1.7c-2.3,0.7-12,3.8-13.1,5.3c-2,3,9.4,41.1,11.2,47.2c0.3,1-0.2,1.7-1.2,2
			c-5.3,1.5-10.3,3.6-15.7,5.2c-1.3,0.4-2.2-0.5-2.5-1.6c-4.4-14.9-7.4-30.1-11.8-45c-0.4-1.5-0.8-1.5-2.3-1.1
			c-6.4,1.9-7.2,2.8-13.5,4.7c-0.8,0.2-1.5,0.1-1.8-0.9c-1.3-4.5-2.1-9.2-3.4-13.8c-0.3-1.1,0.3-1.3,1.4-1.6
			c12.8-3.8,22.4-6.6,35-10.9c5.3-1.8,10.3-3.9,15.7-5.5c0.6-0.2,1-0.3,1.2,0.4C125.3,135.6,126.7,141.1,126.8,145.4z"/>
		<path class="st24" d="M182.2,182.6c0.2,0.7-0.2,1.6-0.9,1.9l-13.1,4.5c-0.1,0-0.1,0-0.1,0c-0.7,0.2-1.4-0.2-1.6-0.8l-1.4-4.3
			c-1.8,3.2-4.6,5.6-9,6.9c-12.1,3.6-22.7-3.1-26.9-17.3c-3.9-13.4,3.1-25.1,13.8-28.3c3.7-1.1,7.5-0.9,10.8,0l-0.7-2.1
			c-0.2-0.7,0.2-1.5,0.9-1.8l15.1-4.7c0.7-0.2,1.5,0.2,1.7,0.9L182.2,182.6z M158.9,162.4c-1.4-2.4-4.2-3.9-7.3-3
			c-3.9,1.1-5.6,5.1-4.3,9.6c1.3,4.4,5.1,6.3,8.6,5.3c2.5-0.7,4.6-3.8,4.1-8.1L158.9,162.4z"/>
		<path class="st24" d="M228.6,152.5c0.9,7.6-1,19.7-14.6,23.7c-14.5,4.3-26.9-1.2-31.4-16.3c-4.9-16.6,2.1-29.6,14.4-33.2
			c11.4-3.3,22.6,0.4,26.3,13.2c0.3,0.9,0.7,2.3,0.7,3.3c0,1.7-1,2.6-2.5,2.9l-10.9,2.8c-1.8,0.4-2.2-0.5-2.7-1.9
			c-0.7-2.5-3-4.4-5.9-3.5c-3.3,1-5.2,5.7-3.2,12.5c2.1,7.3,7.1,8,10.2,7.1c3.6-1.1,4-3.8,3.9-5.7c0-0.9,0.4-1.3,1.4-1.7
			c8.4-2.7,12.3-4.1,12.5-4.1c0.8-0.2,1.3,0,1.5,0.7C228.6,152.3,228.6,152.5,228.6,152.5z"/>
		<path class="st24" d="M261.7,162.2c-12.2,3.6-26.4-1.5-31-17.1c-4.6-15.7,1.3-27.7,15.3-31.8c12.9-3.8,24.8,1.9,29.7,18.6
			C280.1,147.2,273.9,158.7,261.7,162.2z M250.9,131.4c-4,1.2-5.2,5.1-3.9,9.4c1.3,4.3,4.9,6.1,8.4,5.1c3.6-1,4.9-4.7,3.6-9.1
			C257.8,132.5,254.2,130.4,250.9,131.4z"/>
	</g>
	<g>
		<path class="st25" d="M237,217.7l1.8,9.1c3.7,18.6-4.4,35.3-22.3,40.6c-24.2,7.1-42.4-5.9-49.1-28.9c-6.8-23.1,5.9-46.8,26.6-52.9
			c16.8-4.9,34.8,4.6,38.6,17.5c0.1,0.4,0.3,1,0.5,1.7c0.5,1.8,1,4.2-0.5,4.6l-19.3,6.5c-0.8,0.2-1.6-0.4-1.7-0.8
			c-2.4-8.3-6.1-10.2-11.3-8.7c-10.7,3.1-10,17.7-8.1,24.3c4.4,15.1,11.4,19.9,18.7,17.8c5.7-1.7,8.4-5.4,7.4-10.2
			c-1,0.4-2,0.7-3.1,1c-2.5,0.7-5.3,1.3-7.3,1.7c-0.6,0.2-1.1-0.1-1.3-0.7l-6.5-14.9l0-0.1c-0.2-0.4,0.1-1,0.6-1.1l0.1,0
			c10.2-1.2,24.6-4.5,34.9-7.2C236.2,217,236.8,217.1,237,217.7L237,217.7z"/>
		<path class="st25" d="M268.7,257.5c0,0.8-0.7,1.4-1.4,1.4c-0.1,0-0.1,0-0.1,0l-18.6-0.5c-0.9,0-1.5-0.7-1.6-1.5l-1.3-50.4
			c0-0.8,0.6-1.4,1.4-1.4l21.5,0.3c0.8,0,1.5,0.7,1.5,1.5L268.7,257.5z M260.2,200.4c-6.5,0-11.7-5.5-11.7-12.4
			c0-6.8,5.2-12.3,11.7-12.3c6.6,0,11.8,5.5,11.8,12.3C272,194.9,266.8,200.4,260.2,200.4z"/>
		<path class="st25" d="M330.6,256.9l-13.1,1.8c-0.1,0-0.1,0-0.2,0c-0.6,0-1.5-0.4-1.7-1l-2.4-7.8c-0.1-0.6-1-1.1-1.7-1.1
			c-0.1,0-0.1,0-0.1,0l-15.7,1.5c-0.7,0.1-1.5,0.6-1.8,1.3l-3.4,7.6c-0.3,0.6-0.9,1-1.6,1c-0.1,0-0.2,0-0.3,0l-13.4-2.3
			c-0.5-0.1-0.9-0.5-0.9-1c0-0.1,0-0.3,0.1-0.4l22.4-54.3c0.3-0.6,1.1-1.2,1.8-1.2h0.1l19.6,0.6c0.7,0,1.4,0.6,1.6,1.4
			c2.9,17.6,7.9,39.7,11.9,52.6c0,0.1,0,0.2,0,0.3C331.7,256.3,331.3,256.8,330.6,256.9z M308.6,235.5l-2.6-10.9
			c-0.1-0.4-0.2-0.5-0.4-0.5c-0.1,0-0.3,0.1-0.4,0.4l-5.1,11.4c-0.1,0.2-0.1,0.4-0.1,0.5c0,0.4,0.3,0.7,0.9,0.7l6.7-0.3
			c0.6,0,1-0.4,1-1C308.6,235.8,308.6,235.6,308.6,235.5z"/>
		<path class="st25" d="M388.7,257.5c0,0.4-0.4,0.8-0.8,0.8l-15.4,0.1c-0.5,0-1.3-0.4-1.7-0.9c-4.9-6.2-11.8-18.2-15.1-24.4
			c-0.1-0.3-0.6-0.8-1.2-0.8c-0.6,0-1.1,0.5-1.1,1.4l-1.8,25c-0.1,0.4-0.4,0.7-0.9,0.7l-15.4-0.9c-0.4,0-0.7-0.4-0.7-0.7
			c1.6-13.9,2.9-37.6,3-55c0-0.4,0.4-0.6,0.8-0.6l18.8,0.8c0.6,0.1,1.3,0.5,1.4,0.9c2.7,6.8,7.3,20,11.9,26.7c0.3,0.5,0.6,0.9,1,0.9
			c0.6,0,1-0.6,1-1.4l0.3-28.8c0-0.4,0.3-0.6,0.6-0.6c2.9,0.6,6.8,0.9,10.6,0.9c2.2,0,4-0.2,6.1-0.3c0.4-0.1,0.5,0.5,0.5,0.7
			L388.7,257.5z"/>
		<path class="st25" d="M443,213.3c-0.4,1.3-0.9,0.9-1.9,0.9c-2,0-10.8,0.2-12,1.2c-2.4,1.9-2.2,36-2.2,41.4c0,0.9-0.6,1.4-1.4,1.4
			c-4.7,0-9.3,0.5-14.1,0.5c-1.2,0-1.7-0.9-1.7-1.9c0-13.2,1.2-26.5,1.2-39.7c0-1.3-0.3-1.4-1.6-1.4c-5.7,0-6.5,0.6-12.2,0.6
			c-0.7,0-1.3-0.3-1.3-1.2c0-4,0.5-8.1,0.5-12.2c0-0.9,0.6-1,1.5-1c11.4,0,19.9-0.1,31.3-0.6c4.7-0.2,9.4-0.7,14.2-0.7
			c0.5,0,0.9,0,0.9,0.6C444.1,204.9,444,209.7,443,213.3z"/>
	</g>
</g>
</svg>
